<?xml version="1.0" encoding="UTF-8"?>
<svg xmlns="http://www.w3.org/2000/svg" onmouseup="{ if(window.parent.document.onmouseup) window.parent.document.onmouseup(arguments[0]);}" xml:space="preserve" enable-background="new 863.9 303.9 160.1 160.1" viewBox="863.9 303.9 160.1 160.1" y="0px" x="0px" id="Layer_1" version="1.0" xmlns:xlink="http://www.w3.org/1999/xlink"><g><g><g><path data-cppathid="10000" d="M970.3,403.2c0,0,15.5-3.3,15.5-15.6s-16.5-47.1-41.4-47.1c-25.1,0-41.1,37.1-41.1,47.1     c0,10,11.6,15.6,15.6,15.6c0,0-8-21.1,25.6-21.1C978.1,382.3,970.3,403.2,970.3,403.2z" fill="#FFFFFF"/><path data-cppathid="10001" d="M935.1,390.7c3.7-3.2,9.3-3,9.3-3s13.6-0.7,13.6,11.6s0.2,18,0.2,18s-0.8,10.2-13.6,10.2     c-12.6,0-13.3-10.2-13.3-10.2v-18.1C931.3,399.2,931.5,393.9,935.1,390.7z" fill="#FFFFFF"/></g><path data-cppathid="10002" d="M863.9,383.9c0-44.3,35.8-80,80-80l0,0c44.3,0,80,35.8,80,80l0,0c0,44.3-35.8,80-80,80l0,0    C899.7,464,863.9,428.2,863.9,383.9L863.9,383.9z M877.7,383.9c0,36.6,29.6,66.1,66.2,66.2l0,0c36.6,0,66.1-29.6,66.2-66.2l0,0    c0-36.6-29.6-66.1-66.2-66.2l0,0C907.4,317.9,877.9,347.5,877.7,383.9L877.7,383.9z" fill="#FFFFFF"/></g></g></svg>